<?xml version="1.0" encoding="UTF-8"?>
<svg width="61px" height="61px" viewBox="0 0 61 61" version="1.1" xmlns="http://www.w3.org/2000/svg" xmlns:xlink="http://www.w3.org/1999/xlink">
    <!-- Generator: Sketch 48.2 (47327) - http://www.bohemiancoding.com/sketch -->
    <title>Group 6</title>
    <desc>Created with Sketch.</desc>
    <defs>
        <path d="M26.6798189,52.5923164 L26.4277927,52.5923164 C11.9819773,52.5923164 0.27086686,40.8968011 0.27086686,26.4718661 L0.27086686,26.2194555 C0.27086686,11.7937846 11.9819773,0.0990051844 26.4277927,0.0990051844 L26.6798189,0.0990051844 C41.1263712,0.0990051844 52.8367448,11.7937846 52.8367448,26.2194555 L52.8367448,26.4718661 C52.8367448,40.8968011 41.1263712,52.5923164 26.6798189,52.5923164" id="path-1"></path>
        <filter x="-13.3%" y="-11.4%" width="126.6%" height="126.7%" filterUnits="objectBoundingBox" id="filter-2">
            <feMorphology radius="0.5" operator="dilate" in="SourceAlpha" result="shadowSpreadOuter1"></feMorphology>
            <feOffset dx="0" dy="1" in="shadowSpreadOuter1" result="shadowOffsetOuter1"></feOffset>
            <feGaussianBlur stdDeviation="2" in="shadowOffsetOuter1" result="shadowBlurOuter1"></feGaussianBlur>
            <feComposite in="shadowBlurOuter1" in2="SourceAlpha" operator="out" result="shadowBlurOuter1"></feComposite>
            <feColorMatrix values="0 0 0 0 0   0 0 0 0 0   0 0 0 0 0  0 0 0 0.11 0" type="matrix" in="shadowBlurOuter1"></feColorMatrix>
        </filter>
    </defs>
    <g id="Symbols" stroke="none" stroke-width="1" fill="none" fill-rule="evenodd">
        <g id="Group-6" transform="translate(4.000000, 3.000000)">
            <g id="Fill-15">
                <use fill="black" fill-opacity="1" filter="url(#filter-2)" xlink:href="#path-1"></use>
                <use stroke="#ECECEC" stroke-width="1" fill="#FFFFFF" fill-rule="evenodd" xlink:href="#path-1"></use>
            </g>
            <path d="M41.2232333,18.0370837 C40.2357624,18.4742029 39.1753365,18.7700311 38.0618525,18.9024915 C39.198181,18.2225282 40.0721664,17.1459197 40.4818932,15.86179 C39.4207304,16.4917126 38.2423975,16.9494368 36.9881621,17.1959603 C35.9844789,16.1274466 34.5526461,15.4599935 32.9704818,15.4599935 C29.9306926,15.4599935 27.4656999,17.9215488 27.4656999,20.9563632 C27.4656999,21.3883312 27.5143365,21.8063173 27.6079251,22.2088497 C23.0338714,21.9799876 18.9793452,19.7921837 16.2638001,16.4652206 C15.7899615,17.2783801 15.5187754,18.2225282 15.5187754,19.2292271 C15.5187754,21.1359206 16.4900342,22.8196392 17.9660821,23.8042613 C17.0655676,23.7762974 16.2159004,23.5275663 15.4745603,23.1162032 L15.4745603,23.185377 C15.4745603,25.8485664 17.3721257,28.0702213 19.8887028,28.5750425 C19.4281286,28.700144 18.9402885,28.7685818 18.4384469,28.7685818 C18.0854629,28.7685818 17.7383743,28.7332591 17.4038132,28.6692366 C18.103149,30.8526251 20.1363074,32.4414137 22.5438205,32.487039 C20.6617304,33.9610286 18.2881156,34.8396824 15.7081635,34.8396824 C15.2645385,34.8396824 14.8275458,34.8124545 14.3964484,34.7624139 C16.8319644,36.321031 19.7243699,37.2305922 22.8341664,37.2305922 C32.9572173,37.2305922 38.4929499,28.8576246 38.4929499,21.5936448 C38.4929499,21.355952 38.4870545,21.1189951 38.4782115,20.8813023 C39.551165,20.1078809 40.4841039,19.1394484 41.2232333,18.0370837" id="Fill-17" fill="#535D65"></path>
        </g>
    </g>
</svg>