<?xml version="1.0" encoding="UTF-8"?>
<svg width="63px" height="61px" viewBox="0 0 63 61" version="1.1" xmlns="http://www.w3.org/2000/svg" xmlns:xlink="http://www.w3.org/1999/xlink">
    <!-- Generator: Sketch 48.2 (47327) - http://www.bohemiancoding.com/sketch -->
    <title>Group 3</title>
    <desc>Created with Sketch.</desc>
    <defs>
        <path d="M26.87775,51.53974 L26.62125,51.53974 C11.919,51.53974 0,40.0566805 0,25.8937827 L0,25.6466798 C0,11.4823371 11.919,0 26.62125,0 L26.87775,0 C41.58075,0 53.499,11.4823371 53.499,25.6466798 L53.499,25.8937827 C53.499,40.0566805 41.58075,51.53974 26.87775,51.53974" id="path-1"></path>
        <filter x="-13.1%" y="-11.6%" width="126.2%" height="127.2%" filterUnits="objectBoundingBox" id="filter-2">
            <feMorphology radius="0.5" operator="dilate" in="SourceAlpha" result="shadowSpreadOuter1"></feMorphology>
            <feOffset dx="0" dy="1" in="shadowSpreadOuter1" result="shadowOffsetOuter1"></feOffset>
            <feGaussianBlur stdDeviation="2" in="shadowOffsetOuter1" result="shadowBlurOuter1"></feGaussianBlur>
            <feComposite in="shadowBlurOuter1" in2="SourceAlpha" operator="out" result="shadowBlurOuter1"></feComposite>
            <feColorMatrix values="0 0 0 0 0   0 0 0 0 0   0 0 0 0 0  0 0 0 0.11 0" type="matrix" in="shadowBlurOuter1"></feColorMatrix>
        </filter>
    </defs>
    <g id="Symbols" stroke="none" stroke-width="1" fill="none" fill-rule="evenodd">
        <g id="Group-3" transform="translate(5.000000, 4.000000)">
            <g id="Fill-1">
                <use fill="black" fill-opacity="1" filter="url(#filter-2)" xlink:href="#path-1"></use>
                <use stroke="#ECECEC" stroke-width="1" fill="#FFFFFF" fill-rule="evenodd" xlink:href="#path-1"></use>
            </g>
            <g id="Group" transform="translate(12.000000, 9.000000)" fill="#535D65">
                <path d="M22.4226855,12.440647 L22.4226855,3.59696426 L20.7591855,3.59696426 L20.7591855,10.3561678 C20.3894355,10.8583214 20.0399355,11.1068693 19.7076855,11.1068693 C19.4834355,11.1068693 19.3536855,10.9797053 19.3176855,10.7311573 C19.2974355,10.6791356 19.2974355,10.4840544 19.2974355,10.1076199 L19.2974355,3.59696426 L17.6391855,3.59696426 L17.6391855,10.5902653 C17.6391855,11.2138027 17.6954355,11.6379238 17.7869355,11.9045348 C17.9526855,12.3532217 18.3216855,12.5634759 18.8579355,12.5634759 C19.4646855,12.5634759 20.0961855,12.207272 20.7591855,11.4753561 L20.7591855,12.440647 L22.4226855,12.440647 Z M14.6061855,9.87930258 C14.6061855,10.6971987 14.3489355,11.1068693 13.8126855,11.1068693 C13.2756855,11.1068693 13.0184355,10.6971987 13.0184355,9.87930258 L13.0184355,6.15830863 C13.0184355,5.33968996 13.2756855,4.93218694 13.8126855,4.93218694 C14.3489355,4.93218694 14.6061855,5.33968996 14.6061855,6.15830863 L14.6061855,9.87930258 Z M16.2704355,9.57728793 L16.2704355,6.47910889 C16.2704355,5.53404868 16.1024355,4.84403912 15.7536855,4.3960748 C15.2924355,3.79204549 14.6459355,3.48930831 13.8126855,3.48930831 C12.9846855,3.48930831 12.3359355,3.79204549 11.8754355,4.3960748 C11.5214355,4.84403912 11.3549355,5.53404868 11.3549355,6.47910889 L11.3549355,9.57728793 C11.3549355,10.5172905 11.5214355,11.2138027 11.8754355,11.6581544 C12.3359355,12.2607387 12.9846855,12.5634759 13.8126855,12.5634759 C14.6459355,12.5634759 15.2924355,12.2607387 15.7536855,11.6581544 C16.1024355,11.2138027 16.2704355,10.5172905 16.2704355,9.57728793 L16.2704355,9.57728793 Z M11.3399355,0.573205097 L9.47468547,0.573205097 L8.21618547,5.23347907 L6.90743547,0.573205097 L4.96493547,0.573205097 C5.35343547,1.67216273 5.75918547,2.77834559 6.14768547,3.87947079 C6.73943547,5.53404868 7.10843547,6.78184607 7.27568547,7.6337008 L7.27568547,12.440647 L9.12068547,12.440647 L9.12068547,7.6337008 L11.3399355,0.573205097 Z" id="Fill-4"></path>
                <path d="M17.2067355,21.4203085 C16.9359855,21.4203085 16.6614855,21.545305 16.3862355,21.8061358 L16.3862355,27.1412464 C16.6614855,27.4056898 16.9359855,27.5299638 17.2067355,27.5299638 C17.6814855,27.5299638 17.9229855,27.1412464 17.9229855,26.3508061 L17.9229855,22.6146392 C17.9229855,21.825644 17.6814855,21.4203085 17.2067355,21.4203085" id="Fill-6"></path>
                <path d="M23.3158605,21.4203085 C22.7653605,21.4203085 22.4901105,21.825644 22.4901105,22.6348698 L22.4901105,23.4440957 L24.1356105,23.4440957 L24.1356105,22.6348698 C24.1356105,21.825644 23.8596105,21.4203085 23.3158605,21.4203085" id="Fill-8"></path>
                <path d="M25.7819355,24.7651569 L22.4901855,24.7651569 L22.4901855,26.3156915 C22.4901855,27.1263624 22.7654355,27.5302528 23.3294355,27.5302528 C23.7344355,27.5302528 23.9714355,27.317831 24.0659355,26.89371 C24.0809355,26.8070072 24.1011855,26.457306 24.1011855,25.8207632 L25.7819355,25.8207632 L25.7819355,26.051248 C25.7819355,26.5613493 25.7609355,26.9139406 25.7459355,27.0736182 C25.6904355,27.4240419 25.5606855,27.7433971 25.3619355,28.0237361 C24.9059355,28.6588339 24.2309355,28.9724089 23.3714355,28.9724089 C22.5089355,28.9724089 21.8534355,28.6732844 21.3786855,28.0750352 C21.0291855,27.6386313 20.8499355,26.9464542 20.8499355,26.018012 L20.8499355,22.9523465 C20.8499355,22.0166791 21.0081855,21.3324497 21.3584355,20.8902656 C21.8324355,20.2898489 22.4901855,19.9928919 23.3294355,19.9928919 C24.1551855,19.9928919 24.8106855,20.2898489 25.2711855,20.8902656 C25.6161855,21.3324497 25.7819355,22.0166791 25.7819355,22.9523465 L25.7819355,24.7651569 Z M19.5681855,26.2260986 C19.5681855,27.0353245 19.5119355,27.6184006 19.4024355,27.989055 C19.1826855,28.6400483 18.7424355,28.9724089 18.0861855,28.9724089 C17.5004355,28.9724089 16.9356855,28.6588339 16.3859355,28.0035054 L16.3859355,28.851025 L14.7404355,28.851025 L14.7404355,17.1056896 L16.3859355,17.1056896 L16.3859355,20.9415647 C16.9176855,20.3122471 17.4816855,19.9928919 18.0861855,19.9928919 C18.7424355,19.9928919 19.1826855,20.3252525 19.4024355,20.9798584 C19.5119355,21.3324497 19.5681855,21.9119132 19.5681855,22.7399247 L19.5681855,26.2260986 Z M13.3154355,28.851025 L11.6669355,28.851025 L11.6669355,27.8972946 C11.0136855,28.6198176 10.3919355,28.9724089 9.78668547,28.9724089 C9.25568547,28.9724089 8.89043547,28.7650448 8.72618547,28.3214156 C8.63543547,28.0548046 8.58068547,27.6386313 8.58068547,27.0201515 L8.58068547,20.0991028 L10.2261855,20.0991028 L10.2261855,26.5432863 C10.2261855,26.9139406 10.2261855,27.1082993 10.2411855,27.1595985 C10.2816855,27.4052563 10.4061855,27.5302528 10.6266855,27.5302528 C10.9566855,27.5302528 11.3031855,27.284595 11.6669355,26.7889441 L11.6669355,20.0991028 L13.3154355,20.0991028 L13.3154355,28.851025 Z M8.34143547,18.759545 L6.36893547,18.759545 L6.36893547,28.851025 L4.53818547,28.851025 L4.53818547,18.759545 L2.60093547,18.759545 L2.60093547,17.1056896 L8.34143547,17.1056896 L8.34143547,18.759545 Z M27.3389355,16.9705778 C27.0066855,15.5761082 25.8216855,14.5465128 24.3951855,14.3933379 C21.0171855,14.0291862 17.5979355,14.0284637 14.1951855,14.0291862 C10.7916855,14.0284637 7.37318547,14.0291862 3.99518547,14.3933379 C2.56868547,14.5465128 1.38443547,15.5761082 1.05143547,16.9705778 C0.576685465,18.9596838 0.572185465,21.1265306 0.572185465,23.1748836 C0.572185465,25.2203465 0.572185465,27.3908059 1.04618547,29.3777444 C1.37843547,30.772214 2.56343547,31.8018094 3.98993547,31.9557068 C7.36718547,32.3191359 10.7864355,32.3213035 14.1899355,32.3191359 C17.5919355,32.3213035 21.0119355,32.3191359 24.3899355,31.9557068 C25.8164355,31.8018094 27.0006855,30.772214 27.3329355,29.3777444 C27.8091855,27.3908059 27.8106855,25.2203465 27.8106855,23.1748836 C27.8106855,21.1265306 27.8129355,18.9596838 27.3389355,16.9705778 L27.3389355,16.9705778 Z" id="Fill-10"></path>
            </g>
        </g>
    </g>
</svg>