<?xml version="1.0" encoding="UTF-8"?>
<svg width="61px" height="62px" viewBox="0 0 61 62" version="1.1" xmlns="http://www.w3.org/2000/svg" xmlns:xlink="http://www.w3.org/1999/xlink">
    <!-- Generator: Sketch 48.2 (47327) - http://www.bohemiancoding.com/sketch -->
    <title>Group 5</title>
    <desc>Created with Sketch.</desc>
    <defs>
        <path d="M26.7372292,53.2289814 L26.4852031,53.2289814 C12.0401246,53.2289814 0.32827718,41.534202 0.32827718,27.1085311 L0.32827718,26.8568564 C0.32827718,12.4304497 12.0401246,0.735670212 26.4852031,0.735670212 L26.7372292,0.735670212 C41.1837815,0.735670212 52.8941551,12.4304497 52.8941551,26.8568564 L52.8941551,27.1085311 C52.8941551,41.534202 41.1837815,53.2289814 26.7372292,53.2289814" id="path-1"></path>
        <filter x="-13.3%" y="-11.4%" width="126.6%" height="126.7%" filterUnits="objectBoundingBox" id="filter-2">
            <feMorphology radius="0.5" operator="dilate" in="SourceAlpha" result="shadowSpreadOuter1"></feMorphology>
            <feOffset dx="0" dy="1" in="shadowSpreadOuter1" result="shadowOffsetOuter1"></feOffset>
            <feGaussianBlur stdDeviation="2" in="shadowOffsetOuter1" result="shadowBlurOuter1"></feGaussianBlur>
            <feComposite in="shadowBlurOuter1" in2="SourceAlpha" operator="out" result="shadowBlurOuter1"></feComposite>
            <feColorMatrix values="0 0 0 0 0   0 0 0 0 0   0 0 0 0 0  0 0 0 0.11 0" type="matrix" in="shadowBlurOuter1"></feColorMatrix>
        </filter>
    </defs>
    <g id="Symbols" stroke="none" stroke-width="1" fill="none" fill-rule="evenodd">
        <g id="Group-5" transform="translate(4.000000, 3.000000)">
            <g id="Fill-19">
                <use fill="black" fill-opacity="1" filter="url(#filter-2)" xlink:href="#path-1"></use>
                <use stroke="#ECECEC" stroke-width="1" fill="#FFFFFF" fill-rule="evenodd" xlink:href="#path-1"></use>
            </g>
            <path d="M18.8160911,27.6165167 C18.8160911,27.6165167 19.306142,27.7659025 19.0924356,28.6813509 L18.5390097,30.5107759 C18.5390097,30.5107759 18.1757089,30.8522293 17.622283,30.5755343 C17.622283,30.5755343 13.1764531,28.984538 14.0784414,21.5682287 C14.0784414,21.5682287 14.9369516,15.2675301 21.2037074,12.9089996 C27.4704632,10.5526766 32.7932263,12.8663179 33.4380301,13.2085072 C34.08136,13.5521683 39.7475272,16.982892 39.2324211,23.712615 C38.7165781,30.442338 35.3694938,32.8854961 34.6826856,33.4859831 C33.9958775,34.0857343 27.9000868,37.5576679 24.5087874,33.0996403 L22.791767,39.3149756 C22.791767,39.3149756 21.9332568,41.458626 21.2037074,42.1017947 C21.2037074,42.1017947 19.0998048,41.5020435 19.0143222,41.2444817 C19.0143222,41.2444817 18.8853615,38.3288816 19.2287656,37.3435236 L21.7615548,26.8843051 C21.7615548,26.8843051 20.6451231,23.9260234 21.4616289,21.9545715 C21.4616289,21.9545715 22.7490257,18.4826378 25.4100388,19.0831249 C25.4100388,19.0831249 27.8138673,19.6401943 27.2994981,22.7684669 L25.8831406,27.6982006 C25.8831406,27.6982006 25.2390737,30.0133136 26.3120272,30.9567258 C26.3120272,30.9567258 28.1145301,33.2711029 31.2913862,31.1281884 C31.2913862,31.1281884 33.5662539,30.2274579 34.4682423,24.3123662 C34.4682423,24.3123662 35.1977917,19.0389714 32.3215984,16.8526393 C32.3215984,16.8526393 29.0592597,13.7243668 23.135908,15.6538729 C23.135908,15.6538729 18.6709182,17.1955645 17.7696667,21.9545715 C17.7696667,21.9545715 16.942844,24.7060678 18.8160911,27.6165167" id="Fill-22" fill="#535D65"></path>
        </g>
    </g>
</svg>